<mxfile host="Electron" modified="2024-03-26T04:24:54.622Z" agent="Mozilla/5.0 (X11; Linux x86_64) AppleWebKit/537.36 (KHTML, like Gecko) draw.io/24.1.0 Chrome/120.0.6099.109 Electron/28.1.0 Safari/537.36" etag="3IUru1VINb5PO1aYOBUJ" version="24.1.0" type="device">
  <diagram name="Page-1" id="G5rcLAPeoaXAD2SAGd1c">
    <mxGraphModel dx="1434" dy="838" grid="1" gridSize="10" guides="1" tooltips="1" connect="1" arrows="1" fold="1" page="1" pageScale="1" pageWidth="1100" pageHeight="850" math="0" shadow="0">
      <root>
        <mxCell id="0" />
        <mxCell id="1" parent="0" />
        <mxCell id="GfkvLGzbcHBe7PAgsRph-1" value="AWS Cloud" style="points=[[0,0],[0.25,0],[0.5,0],[0.75,0],[1,0],[1,0.25],[1,0.5],[1,0.75],[1,1],[0.75,1],[0.5,1],[0.25,1],[0,1],[0,0.75],[0,0.5],[0,0.25]];outlineConnect=0;gradientColor=none;html=1;whiteSpace=wrap;fontSize=12;fontStyle=0;container=1;pointerEvents=0;collapsible=0;recursiveResize=0;shape=mxgraph.aws4.group;grIcon=mxgraph.aws4.group_aws_cloud;strokeColor=#232F3E;fillColor=none;verticalAlign=top;align=left;spacingLeft=30;fontColor=#232F3E;dashed=0;" parent="1" vertex="1">
          <mxGeometry x="255" y="29" width="590" height="792" as="geometry" />
        </mxCell>
        <mxCell id="GfkvLGzbcHBe7PAgsRph-2" value="Region: US-east-1" style="points=[[0,0],[0.25,0],[0.5,0],[0.75,0],[1,0],[1,0.25],[1,0.5],[1,0.75],[1,1],[0.75,1],[0.5,1],[0.25,1],[0,1],[0,0.75],[0,0.5],[0,0.25]];outlineConnect=0;gradientColor=none;html=1;whiteSpace=wrap;fontSize=12;fontStyle=0;container=1;pointerEvents=0;collapsible=0;recursiveResize=0;shape=mxgraph.aws4.group;grIcon=mxgraph.aws4.group_region;strokeColor=#00A4A6;fillColor=none;verticalAlign=top;align=left;spacingLeft=30;fontColor=#147EBA;dashed=1;" parent="GfkvLGzbcHBe7PAgsRph-1" vertex="1">
          <mxGeometry x="10" y="40" width="570" height="740" as="geometry" />
        </mxCell>
        <mxCell id="GfkvLGzbcHBe7PAgsRph-3" value="VPC: Production (172.16.0.0/16)" style="points=[[0,0],[0.25,0],[0.5,0],[0.75,0],[1,0],[1,0.25],[1,0.5],[1,0.75],[1,1],[0.75,1],[0.5,1],[0.25,1],[0,1],[0,0.75],[0,0.5],[0,0.25]];outlineConnect=0;gradientColor=none;html=1;whiteSpace=wrap;fontSize=12;fontStyle=0;container=1;pointerEvents=0;collapsible=0;recursiveResize=0;shape=mxgraph.aws4.group;grIcon=mxgraph.aws4.group_vpc2;strokeColor=#8C4FFF;fillColor=none;verticalAlign=top;align=left;spacingLeft=30;fontColor=#AAB7B8;dashed=0;" parent="GfkvLGzbcHBe7PAgsRph-2" vertex="1">
          <mxGeometry x="10" y="40" width="550" height="690" as="geometry" />
        </mxCell>
        <mxCell id="GfkvLGzbcHBe7PAgsRph-4" value="AZ us-east-1a" style="fillColor=none;strokeColor=#147EBA;dashed=1;verticalAlign=top;fontStyle=0;fontColor=#147EBA;whiteSpace=wrap;html=1;" parent="GfkvLGzbcHBe7PAgsRph-3" vertex="1">
          <mxGeometry x="10" y="120" width="210" height="560" as="geometry" />
        </mxCell>
        <mxCell id="GfkvLGzbcHBe7PAgsRph-7" value="Public subnet (172.16.1.0/24)" style="points=[[0,0],[0.25,0],[0.5,0],[0.75,0],[1,0],[1,0.25],[1,0.5],[1,0.75],[1,1],[0.75,1],[0.5,1],[0.25,1],[0,1],[0,0.75],[0,0.5],[0,0.25]];outlineConnect=0;gradientColor=none;html=1;whiteSpace=wrap;fontSize=10;fontStyle=0;container=1;pointerEvents=0;collapsible=0;recursiveResize=0;shape=mxgraph.aws4.group;grIcon=mxgraph.aws4.group_security_group;grStroke=0;strokeColor=#7AA116;fillColor=#F2F6E8;verticalAlign=top;align=left;spacingLeft=30;fontColor=#248814;dashed=0;" parent="GfkvLGzbcHBe7PAgsRph-3" vertex="1">
          <mxGeometry x="20" y="150" width="190" height="160" as="geometry" />
        </mxCell>
        <mxCell id="GfkvLGzbcHBe7PAgsRph-8" value="jump box" style="sketch=0;points=[[0,0,0],[0.25,0,0],[0.5,0,0],[0.75,0,0],[1,0,0],[0,1,0],[0.25,1,0],[0.5,1,0],[0.75,1,0],[1,1,0],[0,0.25,0],[0,0.5,0],[0,0.75,0],[1,0.25,0],[1,0.5,0],[1,0.75,0]];outlineConnect=0;fontColor=#232F3E;fillColor=#ED7100;strokeColor=#ffffff;dashed=0;verticalLabelPosition=bottom;verticalAlign=top;align=center;html=1;fontSize=12;fontStyle=0;aspect=fixed;shape=mxgraph.aws4.resourceIcon;resIcon=mxgraph.aws4.ec2;" parent="GfkvLGzbcHBe7PAgsRph-7" vertex="1">
          <mxGeometry x="70" y="55" width="50" height="50" as="geometry" />
        </mxCell>
        <mxCell id="GfkvLGzbcHBe7PAgsRph-43" value="" style="sketch=0;outlineConnect=0;fontColor=#232F3E;gradientColor=none;fillColor=#8C4FFF;strokeColor=none;dashed=0;verticalLabelPosition=bottom;verticalAlign=top;align=center;html=1;fontSize=12;fontStyle=0;aspect=fixed;pointerEvents=1;shape=mxgraph.aws4.nat_gateway;" parent="GfkvLGzbcHBe7PAgsRph-7" vertex="1">
          <mxGeometry x="170" y="137" width="20" height="20" as="geometry" />
        </mxCell>
        <mxCell id="GfkvLGzbcHBe7PAgsRph-60" value="prod-web-sg" style="fillColor=none;strokeColor=#DD3522;verticalAlign=top;fontStyle=0;fontColor=#DD3522;whiteSpace=wrap;html=1;" parent="GfkvLGzbcHBe7PAgsRph-7" vertex="1">
          <mxGeometry x="30" y="27" width="130" height="113" as="geometry" />
        </mxCell>
        <mxCell id="GfkvLGzbcHBe7PAgsRph-6" value="AZ us-east-1b" style="fillColor=none;strokeColor=#147EBA;dashed=1;verticalAlign=top;fontStyle=0;fontColor=#147EBA;whiteSpace=wrap;html=1;" parent="GfkvLGzbcHBe7PAgsRph-3" vertex="1">
          <mxGeometry x="300" y="120" width="210" height="560" as="geometry" />
        </mxCell>
        <mxCell id="GfkvLGzbcHBe7PAgsRph-12" value="Public subnet (172.16.2.0/24)" style="points=[[0,0],[0.25,0],[0.5,0],[0.75,0],[1,0],[1,0.25],[1,0.5],[1,0.75],[1,1],[0.75,1],[0.5,1],[0.25,1],[0,1],[0,0.75],[0,0.5],[0,0.25]];outlineConnect=0;gradientColor=none;html=1;whiteSpace=wrap;fontSize=10;fontStyle=0;container=1;pointerEvents=0;collapsible=0;recursiveResize=0;shape=mxgraph.aws4.group;grIcon=mxgraph.aws4.group_security_group;grStroke=0;strokeColor=#7AA116;fillColor=#F2F6E8;verticalAlign=top;align=left;spacingLeft=30;fontColor=#248814;dashed=0;" parent="GfkvLGzbcHBe7PAgsRph-3" vertex="1">
          <mxGeometry x="310" y="150" width="190" height="160" as="geometry" />
        </mxCell>
        <mxCell id="GfkvLGzbcHBe7PAgsRph-17" value="Private subnet (172.16.3.0/24)" style="points=[[0,0],[0.25,0],[0.5,0],[0.75,0],[1,0],[1,0.25],[1,0.5],[1,0.75],[1,1],[0.75,1],[0.5,1],[0.25,1],[0,1],[0,0.75],[0,0.5],[0,0.25]];outlineConnect=0;gradientColor=none;html=1;whiteSpace=wrap;fontSize=10;fontStyle=0;container=1;pointerEvents=0;collapsible=0;recursiveResize=0;shape=mxgraph.aws4.group;grIcon=mxgraph.aws4.group_security_group;grStroke=0;strokeColor=#00A4A6;fillColor=#E6F6F7;verticalAlign=top;align=left;spacingLeft=30;fontColor=#147EBA;dashed=0;" parent="GfkvLGzbcHBe7PAgsRph-3" vertex="1">
          <mxGeometry x="20" y="332" width="190" height="160" as="geometry" />
        </mxCell>
        <mxCell id="GfkvLGzbcHBe7PAgsRph-22" value="PHP + Apache" style="sketch=0;points=[[0,0,0],[0.25,0,0],[0.5,0,0],[0.75,0,0],[1,0,0],[0,1,0],[0.25,1,0],[0.5,1,0],[0.75,1,0],[1,1,0],[0,0.25,0],[0,0.5,0],[0,0.75,0],[1,0.25,0],[1,0.5,0],[1,0.75,0]];outlineConnect=0;fontColor=#232F3E;fillColor=#ED7100;strokeColor=#ffffff;dashed=0;verticalLabelPosition=bottom;verticalAlign=top;align=center;html=1;fontSize=12;fontStyle=0;aspect=fixed;shape=mxgraph.aws4.resourceIcon;resIcon=mxgraph.aws4.auto_scaling2;" parent="GfkvLGzbcHBe7PAgsRph-17" vertex="1">
          <mxGeometry x="70" y="55" width="50" height="50" as="geometry" />
        </mxCell>
        <mxCell id="GfkvLGzbcHBe7PAgsRph-18" value="Private subnet (172.16.4.0/24)" style="points=[[0,0],[0.25,0],[0.5,0],[0.75,0],[1,0],[1,0.25],[1,0.5],[1,0.75],[1,1],[0.75,1],[0.5,1],[0.25,1],[0,1],[0,0.75],[0,0.5],[0,0.25]];outlineConnect=0;gradientColor=none;html=1;whiteSpace=wrap;fontSize=10;fontStyle=0;container=1;pointerEvents=0;collapsible=0;recursiveResize=0;shape=mxgraph.aws4.group;grIcon=mxgraph.aws4.group_security_group;grStroke=0;strokeColor=#00A4A6;fillColor=#E6F6F7;verticalAlign=top;align=left;spacingLeft=30;fontColor=#147EBA;dashed=0;" parent="GfkvLGzbcHBe7PAgsRph-3" vertex="1">
          <mxGeometry x="310" y="332" width="190" height="160" as="geometry" />
        </mxCell>
        <mxCell id="GfkvLGzbcHBe7PAgsRph-23" value="PHP + Apache" style="sketch=0;points=[[0,0,0],[0.25,0,0],[0.5,0,0],[0.75,0,0],[1,0,0],[0,1,0],[0.25,1,0],[0.5,1,0],[0.75,1,0],[1,1,0],[0,0.25,0],[0,0.5,0],[0,0.75,0],[1,0.25,0],[1,0.5,0],[1,0.75,0]];outlineConnect=0;fontColor=#232F3E;fillColor=#ED7100;strokeColor=#ffffff;dashed=0;verticalLabelPosition=bottom;verticalAlign=top;align=center;html=1;fontSize=12;fontStyle=0;aspect=fixed;shape=mxgraph.aws4.resourceIcon;resIcon=mxgraph.aws4.auto_scaling2;" parent="GfkvLGzbcHBe7PAgsRph-18" vertex="1">
          <mxGeometry x="70" y="55" width="50" height="50" as="geometry" />
        </mxCell>
        <mxCell id="GfkvLGzbcHBe7PAgsRph-19" value="Private subnet (172.16.5.0/24)" style="points=[[0,0],[0.25,0],[0.5,0],[0.75,0],[1,0],[1,0.25],[1,0.5],[1,0.75],[1,1],[0.75,1],[0.5,1],[0.25,1],[0,1],[0,0.75],[0,0.5],[0,0.25]];outlineConnect=0;gradientColor=none;html=1;whiteSpace=wrap;fontSize=10;fontStyle=0;container=1;pointerEvents=0;collapsible=0;recursiveResize=0;shape=mxgraph.aws4.group;grIcon=mxgraph.aws4.group_security_group;grStroke=0;strokeColor=#00A4A6;fillColor=#E6F6F7;verticalAlign=top;align=left;spacingLeft=30;fontColor=#147EBA;dashed=0;" parent="GfkvLGzbcHBe7PAgsRph-3" vertex="1">
          <mxGeometry x="20" y="512" width="190" height="160" as="geometry" />
        </mxCell>
        <mxCell id="GfkvLGzbcHBe7PAgsRph-25" value="RDS&lt;div&gt;MySQL&lt;/div&gt;" style="sketch=0;points=[[0,0,0],[0.25,0,0],[0.5,0,0],[0.75,0,0],[1,0,0],[0,1,0],[0.25,1,0],[0.5,1,0],[0.75,1,0],[1,1,0],[0,0.25,0],[0,0.5,0],[0,0.75,0],[1,0.25,0],[1,0.5,0],[1,0.75,0]];outlineConnect=0;fontColor=#232F3E;fillColor=#C925D1;strokeColor=#ffffff;dashed=0;verticalLabelPosition=bottom;verticalAlign=top;align=center;html=1;fontSize=12;fontStyle=0;aspect=fixed;shape=mxgraph.aws4.resourceIcon;resIcon=mxgraph.aws4.rds;" parent="GfkvLGzbcHBe7PAgsRph-19" vertex="1">
          <mxGeometry x="70" y="55" width="50" height="50" as="geometry" />
        </mxCell>
        <mxCell id="GfkvLGzbcHBe7PAgsRph-20" value="Private subnet (172.16.6.0/24)" style="points=[[0,0],[0.25,0],[0.5,0],[0.75,0],[1,0],[1,0.25],[1,0.5],[1,0.75],[1,1],[0.75,1],[0.5,1],[0.25,1],[0,1],[0,0.75],[0,0.5],[0,0.25]];outlineConnect=0;gradientColor=none;html=1;whiteSpace=wrap;fontSize=10;fontStyle=0;container=1;pointerEvents=0;collapsible=0;recursiveResize=0;shape=mxgraph.aws4.group;grIcon=mxgraph.aws4.group_security_group;grStroke=0;strokeColor=#00A4A6;fillColor=#E6F6F7;verticalAlign=top;align=left;spacingLeft=30;fontColor=#147EBA;dashed=0;" parent="GfkvLGzbcHBe7PAgsRph-3" vertex="1">
          <mxGeometry x="310" y="512" width="190" height="160" as="geometry" />
        </mxCell>
        <mxCell id="GfkvLGzbcHBe7PAgsRph-26" value="RDS&lt;div&gt;MySQL - Read Only&lt;/div&gt;" style="sketch=0;points=[[0,0,0],[0.25,0,0],[0.5,0,0],[0.75,0,0],[1,0,0],[0,1,0],[0.25,1,0],[0.5,1,0],[0.75,1,0],[1,1,0],[0,0.25,0],[0,0.5,0],[0,0.75,0],[1,0.25,0],[1,0.5,0],[1,0.75,0]];outlineConnect=0;fontColor=#232F3E;fillColor=#C925D1;strokeColor=#ffffff;dashed=0;verticalLabelPosition=bottom;verticalAlign=top;align=center;html=1;fontSize=12;fontStyle=0;aspect=fixed;shape=mxgraph.aws4.resourceIcon;resIcon=mxgraph.aws4.rds;" parent="GfkvLGzbcHBe7PAgsRph-20" vertex="1">
          <mxGeometry x="70" y="55" width="50" height="50" as="geometry" />
        </mxCell>
        <mxCell id="GfkvLGzbcHBe7PAgsRph-24" value="" style="sketch=0;outlineConnect=0;fontColor=#232F3E;gradientColor=none;fillColor=#8C4FFF;strokeColor=none;dashed=0;verticalLabelPosition=bottom;verticalAlign=top;align=center;html=1;fontSize=12;fontStyle=0;aspect=fixed;pointerEvents=1;shape=mxgraph.aws4.route_table;" parent="GfkvLGzbcHBe7PAgsRph-3" vertex="1">
          <mxGeometry x="238.94" y="572" width="41.06" height="40" as="geometry" />
        </mxCell>
        <mxCell id="GfkvLGzbcHBe7PAgsRph-29" value="" style="sketch=0;outlineConnect=0;fontColor=#232F3E;gradientColor=none;fillColor=#8C4FFF;strokeColor=none;dashed=0;verticalLabelPosition=bottom;verticalAlign=top;align=center;html=1;fontSize=12;fontStyle=0;aspect=fixed;pointerEvents=1;shape=mxgraph.aws4.application_load_balancer;" parent="GfkvLGzbcHBe7PAgsRph-3" vertex="1">
          <mxGeometry x="241.06" y="70" width="40" height="40" as="geometry" />
        </mxCell>
        <mxCell id="GfkvLGzbcHBe7PAgsRph-30" value="web tier" style="text;html=1;align=center;verticalAlign=middle;whiteSpace=wrap;rounded=0;rotation=90;" parent="GfkvLGzbcHBe7PAgsRph-3" vertex="1">
          <mxGeometry x="500" y="215" width="60" height="30" as="geometry" />
        </mxCell>
        <mxCell id="GfkvLGzbcHBe7PAgsRph-31" value="app tier" style="text;html=1;align=center;verticalAlign=middle;whiteSpace=wrap;rounded=0;rotation=90;" parent="GfkvLGzbcHBe7PAgsRph-3" vertex="1">
          <mxGeometry x="500" y="397" width="60" height="30" as="geometry" />
        </mxCell>
        <mxCell id="GfkvLGzbcHBe7PAgsRph-32" value="database tier" style="text;html=1;align=center;verticalAlign=middle;whiteSpace=wrap;rounded=0;rotation=90;" parent="GfkvLGzbcHBe7PAgsRph-3" vertex="1">
          <mxGeometry x="490" y="577" width="80" height="30" as="geometry" />
        </mxCell>
        <mxCell id="GfkvLGzbcHBe7PAgsRph-33" value="" style="sketch=0;outlineConnect=0;fontColor=#232F3E;gradientColor=none;fillColor=#8C4FFF;strokeColor=none;dashed=0;verticalLabelPosition=bottom;verticalAlign=top;align=center;html=1;fontSize=12;fontStyle=0;aspect=fixed;pointerEvents=1;shape=mxgraph.aws4.route_table;" parent="GfkvLGzbcHBe7PAgsRph-3" vertex="1">
          <mxGeometry x="238.94" y="392" width="41.06" height="40" as="geometry" />
        </mxCell>
        <mxCell id="GfkvLGzbcHBe7PAgsRph-34" value="" style="sketch=0;outlineConnect=0;fontColor=#232F3E;gradientColor=none;fillColor=#8C4FFF;strokeColor=none;dashed=0;verticalLabelPosition=bottom;verticalAlign=top;align=center;html=1;fontSize=12;fontStyle=0;aspect=fixed;pointerEvents=1;shape=mxgraph.aws4.route_table;" parent="GfkvLGzbcHBe7PAgsRph-3" vertex="1">
          <mxGeometry x="240.53" y="210" width="41.06" height="40" as="geometry" />
        </mxCell>
        <mxCell id="GfkvLGzbcHBe7PAgsRph-28" value="" style="sketch=0;outlineConnect=0;fontColor=#232F3E;gradientColor=none;fillColor=#8C4FFF;strokeColor=none;dashed=0;verticalLabelPosition=bottom;verticalAlign=top;align=center;html=1;fontSize=12;fontStyle=0;aspect=fixed;pointerEvents=1;shape=mxgraph.aws4.internet_gateway;" parent="GfkvLGzbcHBe7PAgsRph-3" vertex="1">
          <mxGeometry x="241.06" y="-10" width="40" height="40" as="geometry" />
        </mxCell>
        <mxCell id="GfkvLGzbcHBe7PAgsRph-37" value="" style="endArrow=classic;startArrow=classic;html=1;rounded=0;" parent="GfkvLGzbcHBe7PAgsRph-3" target="GfkvLGzbcHBe7PAgsRph-29" edge="1">
          <mxGeometry width="50" height="50" relative="1" as="geometry">
            <mxPoint x="120" y="360" as="sourcePoint" />
            <mxPoint x="400" y="190" as="targetPoint" />
          </mxGeometry>
        </mxCell>
        <mxCell id="GfkvLGzbcHBe7PAgsRph-38" value="" style="endArrow=classic;startArrow=classic;html=1;rounded=0;" parent="GfkvLGzbcHBe7PAgsRph-3" target="GfkvLGzbcHBe7PAgsRph-29" edge="1">
          <mxGeometry width="50" height="50" relative="1" as="geometry">
            <mxPoint x="400" y="360" as="sourcePoint" />
            <mxPoint x="400" y="190" as="targetPoint" />
          </mxGeometry>
        </mxCell>
        <mxCell id="GfkvLGzbcHBe7PAgsRph-40" value="" style="endArrow=classic;startArrow=classic;html=1;rounded=0;" parent="GfkvLGzbcHBe7PAgsRph-3" edge="1">
          <mxGeometry width="50" height="50" relative="1" as="geometry">
            <mxPoint x="115" y="562" as="sourcePoint" />
            <mxPoint x="115" y="450" as="targetPoint" />
          </mxGeometry>
        </mxCell>
        <mxCell id="GfkvLGzbcHBe7PAgsRph-39" value="" style="endArrow=classic;startArrow=classic;html=1;rounded=0;exitX=0.667;exitY=0.789;exitDx=0;exitDy=0;exitPerimeter=0;" parent="GfkvLGzbcHBe7PAgsRph-3" source="GfkvLGzbcHBe7PAgsRph-4" edge="1">
          <mxGeometry width="50" height="50" relative="1" as="geometry">
            <mxPoint x="150" y="562" as="sourcePoint" />
            <mxPoint x="360" y="440" as="targetPoint" />
          </mxGeometry>
        </mxCell>
        <mxCell id="GfkvLGzbcHBe7PAgsRph-42" value="" style="endArrow=classic;html=1;rounded=0;" parent="GfkvLGzbcHBe7PAgsRph-3" edge="1">
          <mxGeometry width="50" height="50" relative="1" as="geometry">
            <mxPoint x="150" y="592" as="sourcePoint" />
            <mxPoint x="370" y="592" as="targetPoint" />
          </mxGeometry>
        </mxCell>
        <mxCell id="GfkvLGzbcHBe7PAgsRph-59" value="" style="endArrow=classic;startArrow=classic;html=1;rounded=0;" parent="GfkvLGzbcHBe7PAgsRph-3" source="GfkvLGzbcHBe7PAgsRph-29" target="GfkvLGzbcHBe7PAgsRph-28" edge="1">
          <mxGeometry width="50" height="50" relative="1" as="geometry">
            <mxPoint x="210" y="222" as="sourcePoint" />
            <mxPoint x="260" y="172" as="targetPoint" />
          </mxGeometry>
        </mxCell>
        <mxCell id="GfkvLGzbcHBe7PAgsRph-61" value="prod-app-sg" style="fillColor=none;strokeColor=#DD3522;verticalAlign=top;fontStyle=0;fontColor=#DD3522;whiteSpace=wrap;html=1;" parent="GfkvLGzbcHBe7PAgsRph-3" vertex="1">
          <mxGeometry x="51.06" y="370" width="420" height="100" as="geometry" />
        </mxCell>
        <mxCell id="GfkvLGzbcHBe7PAgsRph-64" value="prod-db-sg" style="fillColor=none;strokeColor=#DD3522;verticalAlign=top;fontStyle=0;fontColor=#DD3522;whiteSpace=wrap;html=1;" parent="GfkvLGzbcHBe7PAgsRph-3" vertex="1">
          <mxGeometry x="50" y="540" width="420" height="120" as="geometry" />
        </mxCell>
        <mxCell id="GfkvLGzbcHBe7PAgsRph-65" value="VPC: Non-Production (172.20.0.0/22)" style="points=[[0,0],[0.25,0],[0.5,0],[0.75,0],[1,0],[1,0.25],[1,0.5],[1,0.75],[1,1],[0.75,1],[0.5,1],[0.25,1],[0,1],[0,0.75],[0,0.5],[0,0.25]];outlineConnect=0;gradientColor=none;html=1;whiteSpace=wrap;fontSize=12;fontStyle=0;container=1;pointerEvents=0;collapsible=0;recursiveResize=0;shape=mxgraph.aws4.group;grIcon=mxgraph.aws4.group_vpc2;strokeColor=#8C4FFF;fillColor=none;verticalAlign=top;align=left;spacingLeft=30;fontColor=#AAB7B8;dashed=0;" parent="1" vertex="1">
          <mxGeometry x="1470" y="215" width="360" height="420" as="geometry" />
        </mxCell>
        <mxCell id="GfkvLGzbcHBe7PAgsRph-66" value="AZ us-east-1c" style="fillColor=none;strokeColor=#147EBA;dashed=1;verticalAlign=top;fontStyle=0;fontColor=#147EBA;whiteSpace=wrap;html=1;" parent="GfkvLGzbcHBe7PAgsRph-65" vertex="1">
          <mxGeometry x="10" y="31" width="340" height="379" as="geometry" />
        </mxCell>
        <mxCell id="GfkvLGzbcHBe7PAgsRph-70" value="Private subnet (172.20.2.0/23)" style="points=[[0,0],[0.25,0],[0.5,0],[0.75,0],[1,0],[1,0.25],[1,0.5],[1,0.75],[1,1],[0.75,1],[0.5,1],[0.25,1],[0,1],[0,0.75],[0,0.5],[0,0.25]];outlineConnect=0;gradientColor=none;html=1;whiteSpace=wrap;fontSize=12;fontStyle=0;container=1;pointerEvents=0;collapsible=0;recursiveResize=0;shape=mxgraph.aws4.group;grIcon=mxgraph.aws4.group_security_group;grStroke=0;strokeColor=#00A4A6;fillColor=#E6F6F7;verticalAlign=top;align=left;spacingLeft=30;fontColor=#147EBA;dashed=0;" parent="GfkvLGzbcHBe7PAgsRph-65" vertex="1">
          <mxGeometry x="25" y="235" width="310" height="165" as="geometry" />
        </mxCell>
        <mxCell id="GfkvLGzbcHBe7PAgsRph-73" value="Amazon&lt;div&gt;Linux&lt;/div&gt;" style="sketch=0;points=[[0,0,0],[0.25,0,0],[0.5,0,0],[0.75,0,0],[1,0,0],[0,1,0],[0.25,1,0],[0.5,1,0],[0.75,1,0],[1,1,0],[0,0.25,0],[0,0.5,0],[0,0.75,0],[1,0.25,0],[1,0.5,0],[1,0.75,0]];outlineConnect=0;fontColor=#232F3E;fillColor=#ED7100;strokeColor=#ffffff;dashed=0;verticalLabelPosition=bottom;verticalAlign=top;align=center;html=1;fontSize=12;fontStyle=0;aspect=fixed;shape=mxgraph.aws4.resourceIcon;resIcon=mxgraph.aws4.ec2;" parent="GfkvLGzbcHBe7PAgsRph-70" vertex="1">
          <mxGeometry x="130" y="60" width="50" height="50" as="geometry" />
        </mxCell>
        <mxCell id="GfkvLGzbcHBe7PAgsRph-72" value="RHEL" style="sketch=0;points=[[0,0,0],[0.25,0,0],[0.5,0,0],[0.75,0,0],[1,0,0],[0,1,0],[0.25,1,0],[0.5,1,0],[0.75,1,0],[1,1,0],[0,0.25,0],[0,0.5,0],[0,0.75,0],[1,0.25,0],[1,0.5,0],[1,0.75,0]];outlineConnect=0;fontColor=#232F3E;fillColor=#ED7100;strokeColor=#ffffff;dashed=0;verticalLabelPosition=bottom;verticalAlign=top;align=center;html=1;fontSize=12;fontStyle=0;aspect=fixed;shape=mxgraph.aws4.resourceIcon;resIcon=mxgraph.aws4.ec2;" parent="GfkvLGzbcHBe7PAgsRph-70" vertex="1">
          <mxGeometry x="190" y="60" width="50" height="50" as="geometry" />
        </mxCell>
        <mxCell id="GfkvLGzbcHBe7PAgsRph-74" value="Ubunutu" style="sketch=0;points=[[0,0,0],[0.25,0,0],[0.5,0,0],[0.75,0,0],[1,0,0],[0,1,0],[0.25,1,0],[0.5,1,0],[0.75,1,0],[1,1,0],[0,0.25,0],[0,0.5,0],[0,0.75,0],[1,0.25,0],[1,0.5,0],[1,0.75,0]];outlineConnect=0;fontColor=#232F3E;fillColor=#ED7100;strokeColor=#ffffff;dashed=0;verticalLabelPosition=bottom;verticalAlign=top;align=center;html=1;fontSize=12;fontStyle=0;aspect=fixed;shape=mxgraph.aws4.resourceIcon;resIcon=mxgraph.aws4.ec2;" parent="GfkvLGzbcHBe7PAgsRph-70" vertex="1">
          <mxGeometry x="10" y="60" width="50" height="50" as="geometry" />
        </mxCell>
        <mxCell id="GfkvLGzbcHBe7PAgsRph-71" value="Debian" style="sketch=0;points=[[0,0,0],[0.25,0,0],[0.5,0,0],[0.75,0,0],[1,0,0],[0,1,0],[0.25,1,0],[0.5,1,0],[0.75,1,0],[1,1,0],[0,0.25,0],[0,0.5,0],[0,0.75,0],[1,0.25,0],[1,0.5,0],[1,0.75,0]];outlineConnect=0;fontColor=#232F3E;fillColor=#ED7100;strokeColor=#ffffff;dashed=0;verticalLabelPosition=bottom;verticalAlign=top;align=center;html=1;fontSize=12;fontStyle=0;aspect=fixed;shape=mxgraph.aws4.resourceIcon;resIcon=mxgraph.aws4.ec2;" parent="GfkvLGzbcHBe7PAgsRph-70" vertex="1">
          <mxGeometry x="70" y="60" width="50" height="50" as="geometry" />
        </mxCell>
        <mxCell id="GfkvLGzbcHBe7PAgsRph-75" value="CentOS" style="sketch=0;points=[[0,0,0],[0.25,0,0],[0.5,0,0],[0.75,0,0],[1,0,0],[0,1,0],[0.25,1,0],[0.5,1,0],[0.75,1,0],[1,1,0],[0,0.25,0],[0,0.5,0],[0,0.75,0],[1,0.25,0],[1,0.5,0],[1,0.75,0]];outlineConnect=0;fontColor=#232F3E;fillColor=#ED7100;strokeColor=#ffffff;dashed=0;verticalLabelPosition=bottom;verticalAlign=top;align=center;html=1;fontSize=12;fontStyle=0;aspect=fixed;shape=mxgraph.aws4.resourceIcon;resIcon=mxgraph.aws4.ec2;" parent="GfkvLGzbcHBe7PAgsRph-70" vertex="1">
          <mxGeometry x="250" y="60" width="50" height="50" as="geometry" />
        </mxCell>
        <mxCell id="GfkvLGzbcHBe7PAgsRph-78" value="(172.20.1.0/23)" style="points=[[0,0],[0.25,0],[0.5,0],[0.75,0],[1,0],[1,0.25],[1,0.5],[1,0.75],[1,1],[0.75,1],[0.5,1],[0.25,1],[0,1],[0,0.75],[0,0.5],[0,0.25]];outlineConnect=0;gradientColor=none;html=1;whiteSpace=wrap;fontSize=12;fontStyle=0;container=1;pointerEvents=0;collapsible=0;recursiveResize=0;shape=mxgraph.aws4.group;grIcon=mxgraph.aws4.group_security_group;grStroke=0;strokeColor=#7AA116;fillColor=#F2F6E8;verticalAlign=top;align=left;spacingLeft=30;fontColor=#248814;dashed=0;" parent="GfkvLGzbcHBe7PAgsRph-65" vertex="1">
          <mxGeometry x="115" y="90" width="130" height="130" as="geometry" />
        </mxCell>
        <mxCell id="GfkvLGzbcHBe7PAgsRph-68" value="" style="sketch=0;points=[[0,0,0],[0.25,0,0],[0.5,0,0],[0.75,0,0],[1,0,0],[0,1,0],[0.25,1,0],[0.5,1,0],[0.75,1,0],[1,1,0],[0,0.25,0],[0,0.5,0],[0,0.75,0],[1,0.25,0],[1,0.5,0],[1,0.75,0]];outlineConnect=0;fontColor=#232F3E;fillColor=#ED7100;strokeColor=#ffffff;dashed=0;verticalLabelPosition=bottom;verticalAlign=top;align=center;html=1;fontSize=12;fontStyle=0;aspect=fixed;shape=mxgraph.aws4.resourceIcon;resIcon=mxgraph.aws4.ec2;" parent="GfkvLGzbcHBe7PAgsRph-78" vertex="1">
          <mxGeometry x="40" y="40" width="50" height="50" as="geometry" />
        </mxCell>
        <mxCell id="GfkvLGzbcHBe7PAgsRph-80" value="non-prod-sg" style="fillColor=none;strokeColor=#DD3522;verticalAlign=top;fontStyle=0;fontColor=#DD3522;whiteSpace=wrap;html=1;" parent="GfkvLGzbcHBe7PAgsRph-65" vertex="1">
          <mxGeometry x="20" y="55.5" width="320" height="344.5" as="geometry" />
        </mxCell>
        <mxCell id="GfkvLGzbcHBe7PAgsRph-94" value="" style="sketch=0;outlineConnect=0;fontColor=#232F3E;gradientColor=none;fillColor=#8C4FFF;strokeColor=none;dashed=0;verticalLabelPosition=bottom;verticalAlign=top;align=center;html=1;fontSize=12;fontStyle=0;aspect=fixed;pointerEvents=1;shape=mxgraph.aws4.nat_gateway;" parent="GfkvLGzbcHBe7PAgsRph-65" vertex="1">
          <mxGeometry x="220" y="200" width="20" height="20" as="geometry" />
        </mxCell>
        <mxCell id="GfkvLGzbcHBe7PAgsRph-81" value="On-prem" style="points=[[0,0],[0.25,0],[0.5,0],[0.75,0],[1,0],[1,0.25],[1,0.5],[1,0.75],[1,1],[0.75,1],[0.5,1],[0.25,1],[0,1],[0,0.75],[0,0.5],[0,0.25]];outlineConnect=0;gradientColor=none;html=1;whiteSpace=wrap;fontSize=12;fontStyle=0;container=1;pointerEvents=0;collapsible=0;recursiveResize=0;shape=mxgraph.aws4.group;grIcon=mxgraph.aws4.group_on_premise;strokeColor=#7D8998;fillColor=none;verticalAlign=top;align=left;spacingLeft=30;fontColor=#5A6C86;dashed=0;" parent="1" vertex="1">
          <mxGeometry x="2620" y="215" width="260" height="420" as="geometry" />
        </mxCell>
        <mxCell id="GfkvLGzbcHBe7PAgsRph-82" value="VPC: On-prem (192.168.0.0/16)" style="points=[[0,0],[0.25,0],[0.5,0],[0.75,0],[1,0],[1,0.25],[1,0.5],[1,0.75],[1,1],[0.75,1],[0.5,1],[0.25,1],[0,1],[0,0.75],[0,0.5],[0,0.25]];outlineConnect=0;gradientColor=none;html=1;whiteSpace=wrap;fontSize=12;fontStyle=0;container=1;pointerEvents=0;collapsible=0;recursiveResize=0;shape=mxgraph.aws4.group;grIcon=mxgraph.aws4.group_vpc2;strokeColor=#8C4FFF;fillColor=none;verticalAlign=top;align=left;spacingLeft=30;fontColor=#AAB7B8;dashed=0;" parent="GfkvLGzbcHBe7PAgsRph-81" vertex="1">
          <mxGeometry x="40" y="30" width="200" height="370" as="geometry" />
        </mxCell>
        <mxCell id="GfkvLGzbcHBe7PAgsRph-85" value="Public subnet (192.168.0.0/24)" style="points=[[0,0],[0.25,0],[0.5,0],[0.75,0],[1,0],[1,0.25],[1,0.5],[1,0.75],[1,1],[0.75,1],[0.5,1],[0.25,1],[0,1],[0,0.75],[0,0.5],[0,0.25]];outlineConnect=0;gradientColor=none;html=1;whiteSpace=wrap;fontSize=12;fontStyle=0;container=1;pointerEvents=0;collapsible=0;recursiveResize=0;shape=mxgraph.aws4.group;grIcon=mxgraph.aws4.group_security_group;grStroke=0;strokeColor=#7AA116;fillColor=#F2F6E8;verticalAlign=top;align=left;spacingLeft=30;fontColor=#248814;dashed=0;" parent="GfkvLGzbcHBe7PAgsRph-82" vertex="1">
          <mxGeometry x="40" y="40" width="130" height="140" as="geometry" />
        </mxCell>
        <mxCell id="GfkvLGzbcHBe7PAgsRph-91" value="" style="sketch=0;outlineConnect=0;fontColor=#232F3E;gradientColor=none;fillColor=#8C4FFF;strokeColor=none;dashed=0;verticalLabelPosition=bottom;verticalAlign=top;align=center;html=1;fontSize=12;fontStyle=0;aspect=fixed;pointerEvents=1;shape=mxgraph.aws4.nat_gateway;" parent="GfkvLGzbcHBe7PAgsRph-85" vertex="1">
          <mxGeometry x="110" y="120" width="20" height="20" as="geometry" />
        </mxCell>
        <mxCell id="GfkvLGzbcHBe7PAgsRph-86" value="" style="sketch=0;outlineConnect=0;fontColor=#232F3E;gradientColor=none;fillColor=#8C4FFF;strokeColor=none;dashed=0;verticalLabelPosition=bottom;verticalAlign=top;align=center;html=1;fontSize=12;fontStyle=0;aspect=fixed;pointerEvents=1;shape=mxgraph.aws4.customer_gateway;" parent="GfkvLGzbcHBe7PAgsRph-82" vertex="1">
          <mxGeometry x="-20" y="60" width="40" height="40" as="geometry" />
        </mxCell>
        <mxCell id="GfkvLGzbcHBe7PAgsRph-87" value="Private subnet (192.168.1.0/24)" style="points=[[0,0],[0.25,0],[0.5,0],[0.75,0],[1,0],[1,0.25],[1,0.5],[1,0.75],[1,1],[0.75,1],[0.5,1],[0.25,1],[0,1],[0,0.75],[0,0.5],[0,0.25]];outlineConnect=0;gradientColor=none;html=1;whiteSpace=wrap;fontSize=12;fontStyle=0;container=1;pointerEvents=0;collapsible=0;recursiveResize=0;shape=mxgraph.aws4.group;grIcon=mxgraph.aws4.group_security_group;grStroke=0;strokeColor=#00A4A6;fillColor=#E6F6F7;verticalAlign=top;align=left;spacingLeft=30;fontColor=#147EBA;dashed=0;" parent="GfkvLGzbcHBe7PAgsRph-82" vertex="1">
          <mxGeometry x="40" y="200" width="130" height="150" as="geometry" />
        </mxCell>
        <mxCell id="GfkvLGzbcHBe7PAgsRph-89" value="EC2" style="sketch=0;points=[[0,0,0],[0.25,0,0],[0.5,0,0],[0.75,0,0],[1,0,0],[0,1,0],[0.25,1,0],[0.5,1,0],[0.75,1,0],[1,1,0],[0,0.25,0],[0,0.5,0],[0,0.75,0],[1,0.25,0],[1,0.5,0],[1,0.75,0]];outlineConnect=0;fontColor=#232F3E;fillColor=#ED7100;strokeColor=#ffffff;dashed=0;verticalLabelPosition=bottom;verticalAlign=top;align=center;html=1;fontSize=12;fontStyle=0;aspect=fixed;shape=mxgraph.aws4.resourceIcon;resIcon=mxgraph.aws4.ec2;" parent="GfkvLGzbcHBe7PAgsRph-87" vertex="1">
          <mxGeometry x="40" y="64" width="50" height="50" as="geometry" />
        </mxCell>
        <mxCell id="GfkvLGzbcHBe7PAgsRph-88" value="on-prem-sg" style="fillColor=none;strokeColor=#DD3522;verticalAlign=top;fontStyle=0;fontColor=#DD3522;whiteSpace=wrap;html=1;" parent="GfkvLGzbcHBe7PAgsRph-87" vertex="1">
          <mxGeometry x="10" y="40" width="110" height="100" as="geometry" />
        </mxCell>
        <mxCell id="GfkvLGzbcHBe7PAgsRph-84" value="" style="sketch=0;outlineConnect=0;fontColor=#232F3E;gradientColor=none;fillColor=#8C4FFF;strokeColor=none;dashed=0;verticalLabelPosition=bottom;verticalAlign=top;align=center;html=1;fontSize=12;fontStyle=0;aspect=fixed;pointerEvents=1;shape=mxgraph.aws4.internet_gateway;" parent="GfkvLGzbcHBe7PAgsRph-82" vertex="1">
          <mxGeometry x="140" y="-14" width="40" height="40" as="geometry" />
        </mxCell>
        <mxCell id="GfkvLGzbcHBe7PAgsRph-92" value="" style="sketch=0;outlineConnect=0;fontColor=#232F3E;gradientColor=none;fillColor=#8C4FFF;strokeColor=none;dashed=0;verticalLabelPosition=bottom;verticalAlign=top;align=center;html=1;fontSize=12;fontStyle=0;aspect=fixed;pointerEvents=1;shape=mxgraph.aws4.route_table;" parent="GfkvLGzbcHBe7PAgsRph-82" vertex="1">
          <mxGeometry x="-20" y="260" width="41.05" height="40" as="geometry" />
        </mxCell>
      </root>
    </mxGraphModel>
  </diagram>
</mxfile>
